<svg version="1.1" id="Layer_1" xmlns="http://www.w3.org/2000/svg" x="0" y="0" viewBox="0 0 150.05 20.94" xml:space="preserve">
        <g id="Group_47" transform="translate(-580.525 -590.214)">
          <g id="Group_37" transform="translate(580.525 590.214)">
            <path id="Path_25" class="navbar-brand__logo__color" d="M80.25 16.38l-.54.05-.71.08c-.64.11-1.3.1-1.93-.03-.34-.15-.47-.45-.47-1.03l-.01-7.32h3.57c.04 0 .08-.01.12-.01h.01c.38-.06.68-.36.74-.75h.01v-.06c0-.02.01-.04.01-.07V6.18c0-.45 0-.73-.01-.9v-.16c0-.02-.01-.05-.01-.07v-.08h-.01c-.02-.09-.05-.18-.09-.26l-.02-.03c-.02-.03-.03-.06-.05-.09a.27.27 0 00-.07-.08c-.01-.01-.02-.02-.02-.03a.973.973 0 00-.49-.26h-3.67V1h-.01V.99c-.01-.04-.02-.08-.03-.11 0-.02-.01-.03-.01-.04a.467.467 0 00-.05-.1c-.01-.02-.02-.03-.02-.04l-.06-.09-.03-.04c-.02-.03-.05-.05-.07-.07-.02-.01-.03-.03-.05-.04-.03-.02-.05-.04-.08-.06l-.06-.03c-.03-.01-.05-.03-.08-.04L75.97.3a.145.145 0 00-.07-.02c-.06-.01-.11-.02-.17-.02-.05 0-.1.01-.15.02l-.03.01c-.05.01-.1.02-.15.04l-.01-.01-.09.05-.01.01-2.77 1.61-.05.03-.02.01a.86.86 0 00-.33.57v.06c0 .03-.01.05-.01.08v1.48l-3.55.01a6.27 6.27 0 00-4.33 1.45c-.24.21-.46.45-.65.7V5.11c0-.5-.4-.9-.9-.9H60c-.5 0-.9.4-.9.9v14.67c0 .5.4.9.9.9h2.68c.5 0 .9-.4.9-.9v-8.03c-.01-.55.11-1.09.35-1.58.97-1.87 3.55-2.07 4.62-2.07h3.56v8.06a3.994 3.994 0 004.05 4.48 11.197 11.197 0 002.24-.01c.7-.04 1.4-.17 2.08-.36.02-.01.04-.02.06-.02h.01a.86.86 0 00.59-.79V17.3a.946.946 0 00-.89-.92" style="fill: rgb(255, 255, 255);"></path>
            <path id="Path_26" class="navbar-brand__logo__color" d="M21.8 8.51l-1.24-.18c-2.37-.35-4.34-.75-4.34-2.05s1.56-2.13 3.97-2.13c1.95.02 3.87.49 5.6 1.38l.03.01c.37.21.83.11 1.07-.24.34-.46.64-.95.94-1.43l.45-.72a.93.93 0 00.17-.74.892.892 0 00-.44-.53A16.99 16.99 0 0020.09.06c-2.2-.06-4.37.5-6.27 1.62a5.633 5.633 0 00-2.73 4.85c0 3.29 2.26 5.21 6.91 5.87l1.4.2c2.89.41 4.46.86 4.46 2.08 0 1.28-1.64 2.15-4.08 2.15-2.22 0-4.4-.6-6.32-1.72a.887.887 0 00-1.2.15c-.31.37-1.54 2.1-1.64 2.32-.19.39-.05.87.33 1.09a17.16 17.16 0 008.82 2.23c2.24.07 4.46-.49 6.4-1.62A5.746 5.746 0 0029 14.25c.01-3.11-2.42-5.04-7.2-5.74" style="fill: rgb(255, 255, 255);"></path>
            <path id="Path_27" class="navbar-brand__logo__color" d="M93.56 8.51l-1.24-.18c-2.37-.35-4.34-.75-4.34-2.05s1.56-2.13 3.97-2.13c1.95.02 3.87.49 5.6 1.38l.03.01c.37.21.83.11 1.07-.24.34-.46.64-.95.94-1.43l.45-.72a.93.93 0 00.17-.74.892.892 0 00-.44-.53A16.99 16.99 0 0091.85.06c-2.2-.06-4.37.5-6.27 1.62a5.633 5.633 0 00-2.73 4.85c0 3.29 2.26 5.21 6.91 5.87l1.4.2c2.89.41 4.46.86 4.46 2.08 0 1.28-1.64 2.15-4.08 2.15-2.22 0-4.4-.6-6.32-1.72a.887.887 0 00-1.2.15c-.31.37-1.55 2.1-1.64 2.32-.19.39-.05.87.32 1.09a17.16 17.16 0 008.82 2.23c2.24.07 4.46-.49 6.4-1.62a5.746 5.746 0 002.83-5.03c.01-3.11-2.41-5.04-7.19-5.74" style="fill: rgb(255, 255, 255);"></path>
            <path id="Path_29" class="navbar-brand__logo__color" d="M113.26 4.4c-.95-.26-1.94-.38-2.93-.37-4.45-.33-8.32 3.01-8.66 7.46-.02.3-.03.6-.02.9 0 5.25 3.44 8.52 8.97 8.52 2.29.03 4.52-.68 6.37-2.03.2-.17.32-.42.34-.68a.937.937 0 00-.31-.66c-1.11-1.07-1.38-1.33-1.46-1.4a.824.824 0 00-.71-.24c-.21.04-.4.12-.57.24l-.11.07c-1.07.58-2.27.88-3.49.89-2.53 0-4.28-1.17-4.62-3.05h11.68c.47 0 .85-.36.88-.83.01-.17.02-.65.02-.73.08-1.89-.42-3.75-1.44-5.34a6.842 6.842 0 00-3.94-2.75m1.2 6.12h-8.3a4.16 4.16 0 014.3-2.77c2.25 0 3.7 1.01 4 2.77" style="fill: rgb(255, 255, 255);"></path>
            <path id="Path_30" class="navbar-brand__logo__color" d="M38.65 16.41c-.13 0-.26.01-.39.04l-.86.09c-.64.11-1.3.1-1.94-.03-.34-.15-.48-.45-.48-1.03l-.01-7.34h3.57c.49 0 .89-.4.89-.89V6.18c0-.61 0-.9-.02-1.04h.01v-.03c0-.49-.4-.89-.89-.89h-3.54c0-2.16 0-2.84-.02-3.06h.01v-.02a.883.883 0 00-1.33-.77l-2.77 1.61c-.26.16-.42.44-.41.75v13.45a3.994 3.994 0 004.05 4.48 11.197 11.197 0 002.24-.01c.7-.04 1.4-.17 2.08-.36.38-.1.65-.43.66-.83V17.3c0-.49-.4-.89-.89-.89" style="fill: rgb(255, 255, 255);"></path>
            <path id="Path_31" class="navbar-brand__logo__color" d="M56.1 4.21h-2.68c-.5 0-.9.4-.9.9v.07a6.925 6.925 0 00-3.92-1.16h-.1c-2.2-.07-4.36.66-6.06 2.07a8.268 8.268 0 00-2.53 6.38c-.08 2.34.8 4.61 2.45 6.28a8.674 8.674 0 005.96 2.11h.19c1.43-.04 2.83-.49 4.02-1.28v.2c0 .5.4.9.9.9h2.68c.5 0 .9-.4.9-.9V5.11c-.01-.5-.41-.9-.91-.9m-11.51 9.9l.13-.07a3.25 3.25 0 00-.06-.17l-.02-.05c-.01-.05-.03-.1-.04-.15l-.02-.08a.355.355 0 01-.02-.1l-.01-.06c-.01-.03-.01-.05-.02-.08l-.02-.12c-.01-.04-.01-.08-.02-.12l-.01-.05c-.03-.23-.04-.46-.04-.69 0-.15.01-.3.02-.46l-.14-.03.14-.01c0-.03.01-.07.01-.1l.01-.07c0-.03.01-.05.01-.08l.02-.1c.01-.05.02-.09.02-.14l.01-.04c.01-.07.03-.13.04-.2.19-.8.61-1.52 1.22-2.07.07-.06.14-.12.22-.18l.09-.07c.1-.07.18-.13.27-.18l.05-.03c.12-.07.23-.13.35-.19.26-.12.54-.22.82-.29.12-.03.26-.06.4-.09l.07-.01c.11-.02.23-.03.34-.04l.16-.01c.09-.01.17-.01.26-.01h.11c1.4-.07 2.74.56 3.58 1.68v5.47a4.204 4.204 0 01-3.57 1.68c-1.18.03-2.32-.39-3.2-1.17l-.15-.15-.08-.08-.06-.07c-.04-.04-.07-.09-.11-.13l-.03-.03a4.278 4.278 0 01-.53-.93c-.03-.06-.05-.13-.07-.19l-.13.06z" style="fill: rgb(255, 255, 255);"></path>
            <path id="Path_32" class="navbar-brand__logo__color" d="M124.92 0a1.05 1.05 0 101.05 1.05c0-.58-.47-1.05-1.05-1.05" style="fill: rgb(255, 255, 255);"></path>
            <path id="Path_33" class="navbar-brand__logo__color" d="M127.01 18.85a1.05 1.05 0 101.05 1.05c0-.59-.47-1.05-1.05-1.05" style="fill: rgb(255, 255, 255);"></path>
            <path id="Path_34" class="navbar-brand__logo__color" d="M130.15 0a1.05 1.05 0 101.05 1.05c0-.58-.47-1.05-1.05-1.05" style="fill: rgb(255, 255, 255);"></path>
            <path id="Path_35" class="navbar-brand__logo__color" d="M130.15 3.14a1.05 1.05 0 101.05 1.05c0-.58-.47-1.05-1.05-1.05" style="fill: rgb(255, 255, 255);"></path>
            <path id="Path_36" class="navbar-brand__logo__color" d="M130.15 15.71a1.05 1.05 0 101.05 1.05c0-.59-.47-1.05-1.05-1.05" style="fill: rgb(255, 255, 255);"></path>
            <path id="Path_37" class="navbar-brand__logo__color" d="M130.15 18.85a1.05 1.05 0 101.05 1.05c0-.59-.47-1.05-1.05-1.05" style="fill: rgb(255, 255, 255);"></path>
            <path id="Path_38" class="navbar-brand__logo__color" d="M133.3 0a1.05 1.05 0 101.05 1.05C134.34.47 133.87 0 133.3 0" style="fill: rgb(255, 255, 255);"></path>
            <path id="Path_39" class="navbar-brand__logo__color" d="M133.3 3.14a1.05 1.05 0 101.05 1.05c-.01-.58-.48-1.05-1.05-1.05" style="fill: rgb(255, 255, 255);"></path>
            <path id="Path_40" class="navbar-brand__logo__color" d="M133.3 6.28a1.05 1.05 0 101.05 1.05c-.01-.58-.48-1.05-1.05-1.05" style="fill: rgb(255, 255, 255);"></path>
            <path id="Path_41" class="navbar-brand__logo__color" d="M133.3 12.57a1.05 1.05 0 101.05 1.05c-.01-.58-.48-1.05-1.05-1.05" style="fill: rgb(255, 255, 255);"></path>
            <path id="Path_42" class="navbar-brand__logo__color" d="M133.3 15.71a1.05 1.05 0 101.05 1.05c-.01-.59-.48-1.05-1.05-1.05" style="fill: rgb(255, 255, 255);"></path>
            <path id="Path_43" class="navbar-brand__logo__color" d="M133.3 18.85a1.05 1.05 0 101.05 1.05c-.01-.59-.48-1.05-1.05-1.05" style="fill: rgb(255, 255, 255);"></path>
            <path id="Path_44" class="navbar-brand__logo__color" d="M136.44 0a1.05 1.05 0 101.05 1.05c-.01-.58-.48-1.05-1.05-1.05" style="fill: rgb(255, 255, 255);"></path>
            <path id="Path_45" class="navbar-brand__logo__color" d="M136.44 3.14a1.05 1.05 0 101.05 1.05c-.01-.58-.48-1.05-1.05-1.05" style="fill: rgb(255, 255, 255);"></path>
            <path id="Path_46" class="navbar-brand__logo__color" d="M136.44 6.28a1.05 1.05 0 101.05 1.05c-.01-.58-.48-1.05-1.05-1.05" style="fill: rgb(255, 255, 255);"></path>
            <path id="Path_47" class="navbar-brand__logo__color" d="M136.44 9.42a1.05 1.05 0 101.05 1.05c-.01-.58-.48-1.05-1.05-1.05" style="fill: rgb(255, 255, 255);"></path>
            <path id="Path_48" class="navbar-brand__logo__color" d="M136.44 12.57a1.05 1.05 0 101.05 1.05c-.01-.58-.48-1.05-1.05-1.05" style="fill: rgb(255, 255, 255);"></path>
            <path id="Path_49" class="navbar-brand__logo__color" d="M136.44 15.71a1.05 1.05 0 101.05 1.05c-.01-.59-.48-1.05-1.05-1.05" style="fill: rgb(255, 255, 255);"></path>
            <path id="Path_50" class="navbar-brand__logo__color" d="M136.44 18.85a1.05 1.05 0 101.05 1.05c-.01-.59-.48-1.05-1.05-1.05" style="fill: rgb(255, 255, 255);"></path>
            <path id="Path_51" class="navbar-brand__logo__color" d="M139.58 0a1.05 1.05 0 101.05 1.05c-.01-.58-.47-1.05-1.05-1.05" style="fill: rgb(255, 255, 255);"></path>
            <path id="Path_52" class="navbar-brand__logo__color" d="M139.58 3.14a1.05 1.05 0 101.05 1.05c-.01-.58-.47-1.05-1.05-1.05" style="fill: rgb(255, 255, 255);"></path>
            <path id="Path_53" class="navbar-brand__logo__color" d="M139.58 6.28a1.05 1.05 0 101.05 1.05c-.01-.58-.47-1.05-1.05-1.05" style="fill: rgb(255, 255, 255);"></path>
            <path id="Path_54" class="navbar-brand__logo__color" d="M139.58 9.42a1.05 1.05 0 101.05 1.05c-.01-.58-.47-1.05-1.05-1.05" style="fill: rgb(255, 255, 255);"></path>
            <path id="Path_55" class="navbar-brand__logo__color" d="M139.58 12.57a1.05 1.05 0 101.05 1.05c-.01-.58-.47-1.05-1.05-1.05" style="fill: rgb(255, 255, 255);"></path>
            <path id="Path_56" class="navbar-brand__logo__color" d="M139.58 15.71a1.05 1.05 0 101.05 1.05 1.05 1.05 0 00-1.05-1.05" style="fill: rgb(255, 255, 255);"></path>
            <path id="Path_57" class="navbar-brand__logo__color" d="M139.58 18.85a1.05 1.05 0 101.05 1.05 1.05 1.05 0 00-1.05-1.05" style="fill: rgb(255, 255, 255);"></path>
            <path id="Path_58" class="navbar-brand__logo__color" d="M142.72 3.14a1.05 1.05 0 101.05 1.05c0-.58-.47-1.05-1.05-1.05" style="fill: rgb(255, 255, 255);"></path>
            <path id="Path_59" class="navbar-brand__logo__color" d="M142.72 6.28a1.05 1.05 0 101.05 1.05c0-.58-.47-1.05-1.05-1.05" style="fill: rgb(255, 255, 255);"></path>
            <path id="Path_60" class="navbar-brand__logo__color" d="M142.72 9.42a1.05 1.05 0 101.05 1.05c0-.58-.47-1.05-1.05-1.05" style="fill: rgb(255, 255, 255);"></path>
            <path id="Path_61" class="navbar-brand__logo__color" d="M142.72 12.57a1.05 1.05 0 101.05 1.05c0-.58-.47-1.05-1.05-1.05" style="fill: rgb(255, 255, 255);"></path>
            <path id="Path_62" class="navbar-brand__logo__color" d="M142.72 15.71a1.05 1.05 0 101.05 1.05c0-.59-.47-1.05-1.05-1.05" style="fill: rgb(255, 255, 255);"></path>
            <path id="Path_63" class="navbar-brand__logo__color" d="M145.86 6.28a1.05 1.05 0 101.05 1.05c0-.58-.47-1.05-1.05-1.05" style="fill: rgb(255, 255, 255);"></path>
            <path id="Path_64" class="navbar-brand__logo__color" d="M145.86 9.42a1.05 1.05 0 101.05 1.05c0-.58-.47-1.05-1.05-1.05" style="fill: rgb(255, 255, 255);"></path>
            <path id="Path_65" class="navbar-brand__logo__color" d="M145.86 12.57a1.05 1.05 0 101.05 1.05c0-.58-.47-1.05-1.05-1.05" style="fill: rgb(255, 255, 255);"></path>
            <path id="Path_66" class="navbar-brand__logo__color" d="M149 9.42a1.05 1.05 0 101.05 1.05c0-.58-.47-1.05-1.05-1.05" style="fill: rgb(255, 255, 255);"></path>
            <path id="Path_67" class="navbar-brand__logo__color" d="M5.22 18.33c0 1.44-1.17 2.61-2.61 2.61S0 19.77 0 18.33s1.17-2.61 2.61-2.61 2.61 1.17 2.61 2.61" style="fill: rgb(255, 255, 255);"></path>
          </g>
        </g>
      </svg>
